HIERARCHY
ROOT Hips
{
  OFFSET 1.44925e-005 102.336 -0.101585
  CHANNELS 6 Xposition Yposition Zposition Zrotation Xrotation Yrotation
  JOINT LeftUpLeg
  {
    OFFSET 8.9458 -8.66707 0.101652
    CHANNELS 3 Zrotation Xrotation Yrotation
    JOINT LeftLeg
    {
      OFFSET 0 -44.4227 1.3727
      CHANNELS 3 Zrotation Xrotation Yrotation
      JOINT LeftFoot
      {
        OFFSET -0.253549 -42.0924 -1.46059
        CHANNELS 3 Zrotation Xrotation Yrotation
        JOINT LeftToes
        {
          OFFSET -0.04 -4.41509 8.4991
          CHANNELS 3 Zrotation Xrotation Yrotation
          End Site
          {
            OFFSET 0.08 -0.047448 9.77979
          }
        }
      }
    }
  }
  JOINT Spine
  {
    OFFSET 0 11.8905 0
    CHANNELS 3 Zrotation Xrotation Yrotation
    JOINT Spine1
    {
      OFFSET 0 25.6574 0.127663
      CHANNELS 3 Zrotation Xrotation Yrotation
      JOINT RightShoulder
      {
        OFFSET -8.99 -0.362252 -0.22
        CHANNELS 3 Zrotation Xrotation Yrotation
        JOINT RightArm
        {
          OFFSET -10.2827 -0.00338 0.322123
          CHANNELS 3 Zrotation Xrotation Yrotation
          JOINT RightForeArm
          {
            OFFSET -26.364 0.099144 -1.42434
            CHANNELS 3 Zrotation Xrotation Yrotation
            JOINT RightHand
            {
              OFFSET -22.0324 0.085362 1.02216
              CHANNELS 3 Zrotation Xrotation Yrotation
              End Site
              {
                OFFSET -13.3284 -0.6 1.50291
              }
            }
          }
        }
      }
      JOINT LeftShoulder1
      {
        OFFSET 8.99 -0.362252 -0.22
        CHANNELS 3 Zrotation Xrotation Yrotation
        JOINT LeftArm
        {
          OFFSET 10.2827 -0.00337999 0.322123
          CHANNELS 3 Zrotation Xrotation Yrotation
          JOINT LeftForeArm
          {
            OFFSET 26.2597 0.099144 -1.42434
            CHANNELS 3 Zrotation Xrotation Yrotation
            JOINT LeftHand
            {
              OFFSET 22.0902 0.085362 1.02216
              CHANNELS 3 Zrotation Xrotation Yrotation
              End Site
              {
                OFFSET 13.419 -0.6 1.50291
              }
            }
          }
        }
      }
      JOINT Head
      {
        OFFSET 0 8.73416 0.011341
        CHANNELS 3 Zrotation Xrotation Yrotation
        End Site
        {
          OFFSET -0.29 12.7742 2.51395
        }
      }
    }
  }
  JOINT RightUpLeg
  {
    OFFSET -8.9458 -8.66707 0.101652
    CHANNELS 3 Zrotation Xrotation Yrotation
    JOINT RightLeg
    {
      OFFSET 0 -44.4227 1.3727
      CHANNELS 3 Zrotation Xrotation Yrotation
      JOINT RightFoot
      {
        OFFSET 0.253549 -42.0924 -1.46059
        CHANNELS 3 Zrotation Xrotation Yrotation
        JOINT RightToes
        {
          OFFSET 0.04 -4.41509 8.4991
          CHANNELS 3 Zrotation Xrotation Yrotation
          End Site
          {
            OFFSET -0.08 -0.137448 9.77979
          }
        }
      }
    }
  }
}
MOTION
Frames:	6
Frame Time:	0.0333333
259.141 103.186 6.57522 -3.2245 -0.659014 -92.4336 -1.40934 2.35672 2.2094 -0.271323 9.43866 18.1982 -2.01125 -12.5409 -0.0291605 -1.29703e-009 8.75252e-006 -1.46991e-008 1.52449 8.75944 -0.178976 -2.53006 -0.440221 0.405936 36.778 1.71742 -0.00253762 42.157 -12.0336 4.13694 5.21453 30.2511 14.3541 -8.24727 9.58356 -0.572228 -43.9389 3.56339 -3.52863 -26.7752 -10.2398 5.17573 -1.03404 28.3249 -20.5475 5.82328 9.61819 -0.917488 0.176429 -4.05552 -2.59424 -1.20318 2.89657 -3.70445 -1.51981 10.35 -0.432285 2.35708 -14.2344 -0.0771844 0.0462048 0.000530888 0.662642 
259.102 103.185 6.59679 -3.19957 -0.671116 -92.4467 -1.44801 2.36477 2.17593 -0.262413 9.4218 18.2719 -1.85359 -12.5701 -0.0291638 -1.29703e-009 8.75252e-006 -1.46991e-008 1.34321 8.44323 -0.126699 -2.279 0.109231 0.415392 36.7316 1.71742 -0.00253762 42.1846 -12.158 4.40089 5.29127 30.2472 14.2468 -8.08044 9.59725 -0.683263 -44.0032 3.56339 -3.52863 -26.7925 -10.2181 4.83047 -1.06275 28.2708 -20.5337 5.82328 9.61819 -0.917488 0.0516943 -4.50338 -2.57806 -1.23036 2.87431 -3.71978 -1.53121 10.3888 -0.384843 2.38102 -14.2622 -0.0757828 0.0462048 0.000530888 0.662642 
259.043 103.179 6.62294 -3.10875 -0.719723 -92.4878 -1.52909 2.32108 2.09757 -0.256476 9.38046 18.3974 -1.80806 -12.5852 -0.0291655 -1.29703e-009 8.75252e-006 -1.46991e-008 1.05321 8.11061 -0.0351665 -1.92925 0.617126 0.442739 36.6633 1.71742 -0.00201079 42.2031 -12.2639 4.57234 5.30383 30.2168 14.2274 -8.03079 9.60341 -0.736714 -44.0421 3.56273 -3.52818 -26.8448 -10.0858 4.38413 -1.1205 28.1839 -20.5008 5.82328 9.61819 -0.917488 -0.16814 -4.99816 -2.63129 -1.29662 2.73404 -3.73842 -1.56797 10.5383 -0.281389 2.47309 -14.3605 -0.0692046 0.0462048 0.000530888 0.662642 
258.983 103.169 6.64688 -2.92587 -0.770448 -92.5484 -1.60912 2.18239 2.00572 -0.25188 9.33232 18.5392 -1.81126 -12.6037 -0.0291676 -1.29703e-009 8.75252e-006 -1.46991e-008 0.966742 8.3241 -0.061585 -1.91316 0.0535027 0.403291 36.6505 1.71742 -5.11812e-006 42.218 -12.2177 4.28431 5.18959 30.3701 14.334 -8.1115 9.5963 -0.653581 -43.9962 3.55772 -3.52439 -26.8119 -9.86782 4.55045 -1.08479 28.0079 -20.6236 5.82328 9.61819 -0.917488 -0.245051 -4.91886 -2.51737 -1.37082 2.49027 -3.75454 -1.58372 10.6879 -0.17872 2.58009 -14.4588 -0.0613795 0.0462048 0.000530888 0.662642 
258.888 103.161 6.68912 -2.74733 -0.779034 -92.5991 -1.67075 2.06661 1.92837 -0.21774 9.31159 18.6624 -1.72777 -12.682 -0.0291765 -1.29703e-009 8.75252e-006 -1.46991e-008 1.151 8.83274 -0.225053 -2.25715 -1.02114 0.287571 36.6782 1.71742 0.00237548 42.2767 -12.1988 3.87305 5.10198 30.731 14.3537 -8.00881 9.59469 -0.594994 -43.9075 3.5463 -3.51534 -26.6877 -9.78786 5.15953 -0.929032 27.8472 -20.8908 5.82328 9.61819 -0.917488 -0.0864901 -4.61982 -2.24119 -1.42345 2.35993 -3.78188 -1.55177 10.6634 -0.115054 2.59567 -14.4919 -0.058529 0.0462048 0.000530888 0.662642 
258.742 103.154 6.75164 -2.7127 -0.744968 -92.6634 -1.71351 2.11792 1.89696 -0.160575 9.3555 18.7516 -1.70642 -12.8257 -0.0291931 -1.29703e-009 8.75252e-006 -1.46991e-008 1.31562 8.85939 -0.311917 -2.49832 -1.09847 0.241803 36.6541 1.71742 0.00470157 42.3652 -12.5349 3.91662 5.16309 31.2347 14.1245 -7.69698 9.60106 -0.476621 -43.8502 3.53895 -3.50968 -26.6414 -9.99286 5.27842 -0.82283 27.9224 -20.9912 5.82328 9.61819 -0.917488 0.0678062 -4.86025 -2.20344 -1.4386 2.48229 -3.80433 -1.53238 10.5104 -0.0498105 2.52806 -14.5186 -0.0554858 0.0462048 0.000530888 0.662642 
